<svg width="33" height="32" viewBox="0 0 33 32" fill="none" xmlns="http://www.w3.org/2000/svg">
<mask id="mask0_1818_1941" style="mask-type:luminance" maskUnits="userSpaceOnUse" x="0" y="0" width="33" height="32">
<path d="M32.1077 0H0V32H32.1077V0Z" fill="white"/>
</mask>
<g mask="url(#mask0_1818_1941)">
<mask id="mask1_1818_1941" style="mask-type:alpha" maskUnits="userSpaceOnUse" x="0" y="0" width="39" height="35">
<path d="M38.7968 0H0V34.6666H38.7968V0Z" fill="white"/>
<path d="M14.2672 3.49343C15.0118 2.03868 17.0969 2.03862 17.8416 3.49343L20.7458 9.16791C21.0432 9.74884 21.6069 10.1487 22.2549 10.2395L28.6409 11.1341C30.3074 11.3675 30.9626 13.4194 29.7383 14.5702L25.2036 18.8319C24.7117 19.2943 24.487 19.9731 24.6052 20.6366L25.6869 26.7174C25.976 28.3422 24.2782 29.5966 22.8023 28.8488L16.9637 25.8918C16.3922 25.6023 15.7166 25.6023 15.145 25.8918L9.30646 28.8488C7.83043 29.5967 6.13261 28.3423 6.42178 26.7174L7.50354 20.6366C7.62163 19.973 7.39585 19.2943 6.90388 18.8319L2.37043 14.5702C1.14609 13.4194 1.80132 11.3675 3.46787 11.1341L9.85387 10.2395C10.5017 10.1487 11.0642 9.74875 11.3615 9.16791L14.2672 3.49343Z" fill="#416887"/>
</mask>
<g mask="url(#mask1_1818_1941)">
<path d="M27.181 10.9258C26.8041 11.8418 26.1431 12.8121 25.3179 13.7747C23.6296 15.7442 21.0455 17.9283 17.9742 19.8984C14.9033 21.8683 11.8388 23.3088 9.34116 24.0247C8.45326 24.2792 7.59699 24.4512 6.81445 24.513L7.30438 21.763C7.69022 21.6956 8.12403 21.5978 8.6017 21.461C10.7856 20.835 13.6119 19.526 16.5267 17.6563C19.442 15.7862 21.809 13.765 23.2851 12.043C23.7678 11.4799 24.1312 10.972 24.3891 10.5352L27.181 10.9258Z" fill="url(#paint0_linear_1818_1941)"/>
</g>
<mask id="mask2_1818_1941" style="mask-type:alpha" maskUnits="userSpaceOnUse" x="1" y="2" width="30" height="28">
<path d="M14.2672 3.49343C15.0118 2.03868 17.0969 2.03862 17.8416 3.49343L20.7458 9.16791C21.0432 9.74884 21.6069 10.1487 22.2549 10.2395L28.6409 11.1341C30.3074 11.3675 30.9626 13.4194 29.7383 14.5702L25.2036 18.8319C24.7117 19.2943 24.487 19.9731 24.6052 20.6366L25.6869 26.7174C25.976 28.3422 24.2782 29.5966 22.8023 28.8488L16.9637 25.8918C16.3922 25.6023 15.7166 25.6023 15.145 25.8918L9.30646 28.8488C7.83043 29.5967 6.13261 28.3423 6.42178 26.7174L7.50354 20.6366C7.62163 19.973 7.39585 19.2943 6.90388 18.8319L2.37043 14.5702C1.14609 13.4194 1.80132 11.3675 3.46787 11.1341L9.85387 10.2395C10.5017 10.1487 11.0642 9.74875 11.3615 9.16791L14.2672 3.49343Z" fill="url(#paint1_linear_1818_1941)"/>
</mask>
<g mask="url(#mask2_1818_1941)">
<g filter="url(#filter0_f_1818_1941)">
<path d="M27.181 10.9297C26.8041 11.8457 26.1431 12.816 25.3179 13.7786C23.6296 15.7481 21.0455 17.9322 17.9742 19.9023C14.9033 21.8722 11.8388 23.3127 9.34116 24.0286C8.45326 24.2831 7.59699 24.4551 6.81445 24.5169L7.30438 21.7669C7.69022 21.6995 8.12403 21.6017 8.6017 21.4649C10.7856 20.8389 13.6119 19.5299 16.5267 17.6602C19.442 15.7901 21.809 13.7689 23.2851 12.0469C23.7678 11.4838 24.1312 10.9759 24.3891 10.5391L27.181 10.9297Z" fill="url(#paint2_linear_1818_1941)"/>
</g>
</g>
<path d="M14.2672 3.49343C15.0118 2.03868 17.0969 2.03862 17.8416 3.49343L20.7458 9.16791C21.0432 9.74884 21.6069 10.1487 22.2549 10.2395L28.6409 11.1341C30.3074 11.3675 30.9626 13.4194 29.7383 14.5702L25.2036 18.8319C24.7117 19.2943 24.487 19.9731 24.6052 20.6366L25.6869 26.7174C25.976 28.3422 24.2782 29.5966 22.8023 28.8488L16.9637 25.8918C16.3922 25.6023 15.7166 25.6023 15.145 25.8918L9.30646 28.8488C7.83043 29.5967 6.13261 28.3423 6.42178 26.7174L7.50354 20.6366C7.62163 19.973 7.39585 19.2943 6.90388 18.8319L2.37043 14.5702C1.14609 13.4194 1.80132 11.3675 3.46787 11.1341L9.85387 10.2395C10.5017 10.1487 11.0642 9.74875 11.3615 9.16791L14.2672 3.49343Z" fill="url(#paint3_linear_1818_1941)"/>
<path d="M14.2664 3.49336C15.011 2.03867 17.0961 2.03867 17.8409 3.49336L20.7465 9.16785C21.0438 9.74875 21.6062 10.1487 22.2541 10.2395L28.6402 11.134C30.3067 11.3675 30.962 13.4195 29.7376 14.5701L25.2029 18.8319C24.711 19.2943 24.4864 19.9731 24.6045 20.6367L25.6863 26.7173C25.9664 28.2915 24.3814 29.5188 22.94 28.914L22.8015 28.8501L16.9629 25.8919C16.3914 25.6023 15.7158 25.6023 15.1443 25.8919L9.30562 28.8501L9.16714 28.914C7.77224 29.4993 6.24185 28.3688 6.39871 26.8684L6.42092 26.7173L7.50268 20.6367C7.60601 20.056 7.44648 19.4641 7.07546 19.0155L6.90431 18.8319L2.36952 14.5701C1.18328 13.4552 1.76123 11.4946 3.31411 11.1613L3.46697 11.134L9.85304 10.2395C10.501 10.1486 11.0634 9.74873 11.3607 9.16785L14.2664 3.49336ZM16.9472 3.94779C16.5749 3.22044 15.5324 3.22044 15.1599 3.94779L12.2544 9.62228C11.8083 10.4936 10.9647 11.0941 9.99283 11.2303L3.60675 12.1249C2.77348 12.2416 2.44586 13.2669 3.05803 13.8423L7.59284 18.104C8.33076 18.7977 8.66753 19.8157 8.49038 20.8111L7.40862 26.8919C7.26405 27.7041 8.11301 28.3319 8.85098 27.9583L14.6897 24.9999C15.5468 24.5657 16.5605 24.5657 17.4176 24.9999L23.2563 27.9583C23.9942 28.3319 24.8432 27.7041 24.6986 26.8919L23.6168 20.8111C23.4397 19.8157 23.7764 18.7977 24.5144 18.104L29.0492 13.8423C29.6614 13.2669 29.3337 12.2416 28.5004 12.1249L22.1143 11.2303C21.1424 11.0941 20.2989 10.4936 19.8528 9.62228L16.9472 3.94779Z" fill="url(#paint4_linear_1818_1941)"/>
<path d="M8.12492 3.84968L7.28222 1.73338C7.06916 1.1983 6.30935 1.19823 6.09618 1.73328L5.25302 3.84968C5.24374 3.87287 5.22536 3.8912 5.2021 3.90043L3.07835 4.74098C2.54158 4.95342 2.5416 5.71064 3.07836 5.92308L5.2021 6.76363C5.22536 6.77287 5.24374 6.79119 5.25302 6.81437L6.09616 8.93077C6.30933 9.46583 7.06915 9.46576 7.28222 8.93068L8.12492 6.81437C8.1342 6.79109 8.15282 6.77284 8.1762 6.76363L10.3001 5.9231C10.8369 5.71067 10.8369 4.95339 10.3001 4.74096L8.1762 3.90043C8.15282 3.89122 8.1342 3.87296 8.12492 3.84968Z" fill="url(#paint5_linear_1818_1941)"/>
<path d="M31.4393 21.6667C31.4393 21.7213 31.4366 21.7757 31.4312 21.83C31.4259 21.8843 31.4178 21.9383 31.4071 21.9918C31.3965 22.0454 31.3832 22.0982 31.3673 22.1505C31.3514 22.2027 31.3329 22.254 31.312 22.3045C31.291 22.3549 31.2676 22.4042 31.2418 22.4523C31.216 22.5005 31.1879 22.5472 31.1575 22.5926C31.127 22.638 31.0944 22.6818 31.0597 22.724C31.0249 22.7662 30.9882 22.8066 30.9495 22.8452C30.9108 22.8838 30.8702 22.9204 30.8279 22.955C30.7855 22.9896 30.7416 23.0221 30.6961 23.0524C30.6505 23.0828 30.6036 23.1108 30.5553 23.1365C30.507 23.1623 30.4576 23.1856 30.407 23.2065C30.3564 23.2274 30.3049 23.2457 30.2524 23.2616C30.2 23.2774 30.147 23.2907 30.0932 23.3013C30.0395 23.312 29.9854 23.32 29.9309 23.3253C29.8764 23.3307 29.8218 23.3333 29.767 23.3333C29.7122 23.3333 29.6576 23.3307 29.6031 23.3253C29.5486 23.32 29.4945 23.312 29.4408 23.3013C29.387 23.2907 29.334 23.2774 29.2816 23.2616C29.2292 23.2457 29.1777 23.2274 29.1271 23.2065C29.0765 23.1856 29.027 23.1623 28.9787 23.1365C28.9304 23.1108 28.8835 23.0828 28.8379 23.0524C28.7924 23.0221 28.7485 22.9896 28.7061 22.955C28.6638 22.9204 28.6233 22.8838 28.5845 22.8452C28.5458 22.8066 28.5091 22.7662 28.4743 22.724C28.4396 22.6818 28.407 22.638 28.3766 22.5926C28.3461 22.5472 28.318 22.5005 28.2922 22.4523C28.2664 22.4042 28.243 22.3549 28.222 22.3045C28.2011 22.254 28.1826 22.2027 28.1667 22.1505C28.1508 22.0982 28.1375 22.0454 28.1269 21.9918C28.1162 21.9383 28.1081 21.8843 28.1028 21.83C28.0974 21.7757 28.0947 21.7213 28.0947 21.6667C28.0947 21.6121 28.0974 21.5576 28.1028 21.5033C28.1081 21.449 28.1162 21.3951 28.1269 21.3415C28.1375 21.288 28.1508 21.2351 28.1667 21.1829C28.1826 21.1306 28.2011 21.0793 28.222 21.0289C28.243 20.9784 28.2664 20.9291 28.2922 20.881C28.318 20.8329 28.3461 20.7861 28.3766 20.7407C28.407 20.6953 28.4396 20.6515 28.4743 20.6093C28.5091 20.5671 28.5458 20.5268 28.5845 20.4882C28.6233 20.4496 28.6638 20.4129 28.7061 20.3783C28.7485 20.3437 28.7924 20.3112 28.8379 20.2809C28.8835 20.2506 28.9304 20.2225 28.9787 20.1968C29.027 20.1711 29.0765 20.1478 29.1271 20.1269C29.1777 20.106 29.2292 20.0876 29.2816 20.0718C29.334 20.0559 29.387 20.0427 29.4408 20.032C29.4945 20.0214 29.5486 20.0134 29.6031 20.008C29.6576 20.0027 29.7122 20 29.767 20C29.8218 20 29.8764 20.0027 29.9309 20.008C29.9854 20.0134 30.0395 20.0214 30.0932 20.032C30.147 20.0427 30.2 20.0559 30.2524 20.0718C30.3049 20.0876 30.3564 20.106 30.407 20.1269C30.4576 20.1478 30.507 20.1711 30.5553 20.1968C30.6036 20.2225 30.6505 20.2506 30.6961 20.2809C30.7416 20.3112 30.7855 20.3437 30.8279 20.3783C30.8702 20.4129 30.9108 20.4496 30.9495 20.4882C30.9882 20.5268 31.0249 20.5671 31.0597 20.6093C31.0944 20.6515 31.127 20.6953 31.1575 20.7407C31.1879 20.7861 31.216 20.8329 31.2418 20.881C31.2676 20.9291 31.291 20.9784 31.312 21.0289C31.3329 21.0793 31.3514 21.1306 31.3673 21.1829C31.3832 21.2351 31.3965 21.288 31.4071 21.3415C31.4178 21.3951 31.4259 21.449 31.4312 21.5033C31.4366 21.5576 31.4393 21.6121 31.4393 21.6667Z" fill="url(#paint6_linear_1818_1941)"/>
<path d="M24.3899 6.52991C25.3508 6.57386 26.4818 6.86722 27.1217 7.85804L27.2315 8.04554C27.7351 8.9911 27.5382 10.0513 27.2028 10.8854C27.1969 10.8999 27.1891 10.9138 27.1831 10.9283L24.3926 10.5377C24.532 10.3016 24.6414 10.0866 24.7191 9.8932C24.8545 9.5566 24.8635 9.38003 24.8589 9.30856C24.7954 9.27488 24.6308 9.21064 24.2684 9.19398C23.6729 9.16679 22.8094 9.28751 21.709 9.60283C19.525 10.2288 16.6991 11.5376 13.784 13.4075C10.8687 15.2776 8.50191 17.2987 7.02569 19.0208C6.28187 19.8885 5.81563 20.6216 5.59379 21.1732C5.45846 21.5097 5.44957 21.6861 5.454 21.7577C5.51784 21.7915 5.68296 21.8557 6.04583 21.8724C6.38115 21.8876 6.80077 21.8545 7.30003 21.7681L6.81011 24.5156C6.50233 24.5396 6.20566 24.5493 5.92303 24.5364C4.96222 24.4925 3.83109 24.1989 3.19121 23.2083C2.55165 22.2176 2.75247 21.0707 3.1102 20.1809C3.48383 19.2521 4.15451 18.2669 4.99283 17.2891C6.68117 15.3196 9.26519 13.1355 12.3365 11.1653C15.4076 9.19532 18.4719 7.7549 20.9696 7.03903C22.2098 6.68367 23.3871 6.48417 24.3899 6.52991Z" fill="url(#paint7_linear_1818_1941)"/>
</g>
<defs>
<filter id="filter0_f_1818_1941" x="1.8316" y="5.55621" width="30.3319" height="23.9423" filterUnits="userSpaceOnUse" color-interpolation-filters="sRGB">
<feFlood flood-opacity="0" result="BackgroundImageFix"/>
<feBlend mode="normal" in="SourceGraphic" in2="BackgroundImageFix" result="shape"/>
<feGaussianBlur stdDeviation="2.49143" result="effect1_foregroundBlur_1818_1941"/>
</filter>
<linearGradient id="paint0_linear_1818_1941" x1="16.9977" y1="10.5352" x2="16.9977" y2="24.513" gradientUnits="userSpaceOnUse">
<stop stop-color="#A2FCFF"/>
<stop offset="1" stop-color="#012B41"/>
</linearGradient>
<linearGradient id="paint1_linear_1818_1941" x1="16.0544" y1="2.40234" x2="16.0544" y2="29.0704" gradientUnits="userSpaceOnUse">
<stop stop-color="#FAC9C9" stop-opacity="0.6"/>
<stop offset="1" stop-color="#E8C5C5" stop-opacity="0.6"/>
</linearGradient>
<linearGradient id="paint2_linear_1818_1941" x1="16.9977" y1="10.5391" x2="16.9977" y2="24.5169" gradientUnits="userSpaceOnUse">
<stop stop-color="#A2FCFF"/>
<stop offset="1" stop-color="#012B41"/>
</linearGradient>
<linearGradient id="paint3_linear_1818_1941" x1="16.0544" y1="2.40234" x2="16.0544" y2="29.0704" gradientUnits="userSpaceOnUse">
<stop stop-color="#C9ECFA" stop-opacity="0.6"/>
<stop offset="1" stop-color="#C5E5E8" stop-opacity="0.6"/>
</linearGradient>
<linearGradient id="paint4_linear_1818_1941" x1="16.0535" y1="2.40234" x2="16.0536" y2="17.8465" gradientUnits="userSpaceOnUse">
<stop stop-color="white"/>
<stop offset="1" stop-color="white" stop-opacity="0"/>
</linearGradient>
<linearGradient id="paint5_linear_1818_1941" x1="2.67578" y1="1.87049" x2="10.7729" y2="9.33202" gradientUnits="userSpaceOnUse">
<stop stop-color="#4D8F9D"/>
<stop offset="1" stop-color="#416887"/>
</linearGradient>
<linearGradient id="paint6_linear_1818_1941" x1="28.0947" y1="20.2244" x2="31.4685" y2="23.3333" gradientUnits="userSpaceOnUse">
<stop stop-color="#4D8F9D"/>
<stop offset="1" stop-color="#416887"/>
</linearGradient>
<linearGradient id="paint7_linear_1818_1941" x1="2.77539" y1="7.73623" x2="27.754" y2="24.5421" gradientUnits="userSpaceOnUse">
<stop stop-color="#4D8F9D"/>
<stop offset="1" stop-color="#416887"/>
</linearGradient>
</defs>
</svg>
